<svg width="500" height="150" viewBox="0 0 500 150" fill="none" xmlns="http://www.w3.org/2000/svg">
<g clip-path="url(#clip0_0_1)">
<g filter="url(#filter0_i_0_1)">
<circle cx="82" cy="75" r="70" fill="#030303"/>
</g>
<circle cx="82" cy="75" r="69.5" stroke="black"/>
<g filter="url(#filter1_i_0_1)">
<ellipse cx="82.5" cy="75" rx="62.5" ry="62" fill="black"/>
</g>
<path d="M144.5 75C144.5 108.962 116.745 136.5 82.5 136.5C48.2546 136.5 20.5 108.962 20.5 75C20.5 41.0383 48.2546 13.5 82.5 13.5C116.745 13.5 144.5 41.0383 144.5 75Z" stroke="white"/>
<path d="M166.024 102.472C165.171 101.96 164.616 101.277 164.36 100.424C164.019 99.5707 163.592 98.76 163.08 97.992V97.608C163.08 97.1813 163.037 96.7547 162.952 96.328C162.867 95.9867 162.824 95.6453 162.824 95.304V93.256L164.36 94.408L164.616 94.28L165.384 93.128L166.024 93L166.536 92.36C168.499 91.5067 170.12 90.7813 171.4 90.184C172.595 89.672 174.045 88.7333 175.752 87.368L176.008 87.24C175.411 88.008 174.984 88.8187 174.728 89.672C174.472 90.5253 174.003 91.2933 173.32 91.976L173.192 92.744L173.704 93.384C175.496 92.7013 177.587 90.9093 179.976 88.008C182.365 85.1067 184.84 81.608 187.4 77.512C189.96 73.416 192.392 69.192 194.696 64.84C197 60.4027 198.92 56.3493 200.456 52.68C202.077 49.0107 203.101 46.1947 203.528 44.232L203.272 43.848L202.504 44.744L201.992 41.928C201.224 42.0133 200.755 41.5867 200.584 40.648C200.413 39.624 200.328 38.6 200.328 37.576C200.328 36.7227 200.285 35.9973 200.2 35.4C200.2 34.7173 200.072 34.376 199.816 34.376L199.56 33.352L200.072 31.56L204.552 30.664V28.232C204.893 27.0373 204.723 26.0133 204.04 25.16C203.443 24.2213 202.931 23.2827 202.504 22.344C202.504 21.7467 202.845 20.8933 203.528 19.784C204.211 18.5893 204.893 17.992 205.576 17.992L206.216 18.248C206.728 20.2107 207.155 22.1733 207.496 24.136C207.923 26.0987 208.221 28.104 208.392 30.152H208.904C209.587 30.152 210.013 30.28 210.184 30.536C210.355 30.792 210.44 31.304 210.44 32.072C210.44 34.888 210.824 37.6613 211.592 40.392C212.445 43.1227 212.872 45.9387 212.872 48.84C212.872 49.9493 213.213 51.8267 213.896 54.472C214.579 57.032 215.475 59.72 216.584 62.536C217.693 65.2667 218.888 67.656 220.168 69.704C221.533 71.6667 222.899 72.648 224.264 72.648H225.672C226.611 71.88 227.507 71.1973 228.36 70.6C229.213 69.9173 230.067 69.192 230.92 68.424C231.859 67.5707 232.328 66.9733 232.328 66.632C232.413 66.2907 232.584 65.5653 232.84 64.456C233.011 63.7733 233.267 63.176 233.608 62.664C234.035 62.0667 234.333 61.4693 234.504 60.872C237.149 55.0693 239.368 48.968 241.16 42.568C243.037 36.0827 243.976 29.6827 243.976 23.368L243.208 21.576C242.525 21.9173 241.8 22.2587 241.032 22.6C240.264 22.856 239.667 23.3253 239.24 24.008L238.472 24.392L237.448 24.264C235.912 25.6293 234.333 26.952 232.712 28.232C231.176 29.4267 229.683 30.7493 228.232 32.2L227.592 31.944C228.104 31.176 229 30.024 230.28 28.488C231.56 26.952 233.011 25.3307 234.632 23.624C236.253 21.832 237.789 20.1253 239.24 18.504C240.691 16.7973 241.8 15.3893 242.568 14.28C242.995 14.1093 243.379 13.9387 243.72 13.768C244.147 13.5973 244.531 13.512 244.872 13.512C246.579 13.512 247.859 14.1093 248.712 15.304C249.565 16.4987 249.992 17.864 249.992 19.4C249.992 21.5333 249.693 23.5813 249.096 25.544C248.499 27.5067 248.285 29.5973 248.456 31.816L247.944 32.712H247.304L247.432 31.56L247.176 31.176C247.005 32.3707 246.451 33.736 245.512 35.272C244.659 36.808 244.445 38.1307 244.872 39.24L243.848 40.648C244.019 40.9893 244.104 41.416 244.104 41.928C244.104 44.8293 243.549 47.688 242.44 50.504C241.331 53.2347 240.179 56.008 238.984 58.824C237.875 61.5547 237.32 64.4133 237.32 67.4C237.32 67.9973 237.533 68.5093 237.96 68.936C238.387 69.2773 238.6 69.7467 238.6 70.344C238.6 71.7093 238.131 73.3733 237.192 75.336C236.339 77.2987 235.229 79.0907 233.864 80.712C232.584 82.4187 231.304 83.656 230.024 84.424L227.976 84.552C227.123 84.6373 226.056 84.4667 224.776 84.04C223.581 83.6987 222.643 83.144 221.96 82.376V82.12L220.808 82.248C219.272 82.4187 217.736 81.7787 216.2 80.328C214.749 78.8773 213.384 77.0427 212.104 74.824C210.909 72.6053 209.928 70.3867 209.16 68.168C208.477 65.9493 208.136 64.1573 208.136 62.792C208.136 62.7067 208.221 62.408 208.392 61.896C208.563 61.384 208.691 61.0427 208.776 60.872L208.264 60.232L208.008 60.36L206.984 57.928L207.624 56.392L206.344 54.6H206.216C205.533 54.6 205.021 54.3013 204.68 53.704C204.424 53.1067 204.211 52.5093 204.04 51.912C203.699 52.8507 203.101 54.3013 202.248 56.264C201.395 58.1413 200.456 60.1893 199.432 62.408C198.408 64.5413 197.427 66.504 196.488 68.296C195.549 70.088 194.824 71.3253 194.312 72.008L194.44 72.136C194.013 72.7333 193.587 73.3307 193.16 73.928C192.819 74.5253 192.435 75.1653 192.008 75.848L192.136 75.976L191.88 76.488C191.539 76.9147 191.197 77.3413 190.856 77.768C190.6 78.1947 190.301 78.664 189.96 79.176C189.021 81.0533 187.613 83.1867 185.736 85.576C183.944 87.9653 181.896 90.312 179.592 92.616C177.288 95.0053 174.941 97.0533 172.552 98.76C170.163 100.552 167.987 101.789 166.024 102.472ZM246.152 36.936L245.768 36.424C245.853 36.168 245.981 35.912 246.152 35.656C246.408 35.3147 246.621 35.0587 246.792 34.888L246.536 34.12L246.92 33.864H247.56C247.475 34.4613 247.347 35.016 247.176 35.528C247.005 36.04 246.664 36.5093 246.152 36.936ZM244.872 41.416C244.872 40.8187 244.957 40.264 245.128 39.752C245.384 39.24 245.683 38.728 246.024 38.216L246.152 38.856C246.067 39.368 245.896 39.8373 245.64 40.264C245.469 40.6053 245.213 40.9893 244.872 41.416ZM222.984 77.256L223.112 76.872L222.984 76.232L222.6 77.128L222.984 77.256ZM176.904 86.856L177.16 86.088L177.544 86.344L177.8 86.856H176.904ZM250.305 80.072C249.196 80.072 248.47 79.5173 248.129 78.408C247.873 77.384 247.745 76.4453 247.745 75.592C247.745 74.9947 247.873 73.8427 248.129 72.136C248.47 70.4293 248.897 68.808 249.409 67.272C249.921 65.6507 250.476 64.84 251.073 64.84C251.158 63.9013 251.5 62.7067 252.097 61.256C252.694 59.8053 253.462 58.952 254.401 58.696V58.568C254.572 58.312 254.785 58.056 255.041 57.8C255.297 57.544 255.553 57.288 255.809 57.032L255.937 56.776V56.904L256.065 55.112C256.492 54.856 256.833 54.4293 257.089 53.832C257.345 53.1493 257.686 52.6373 258.113 52.296L258.497 52.68C259.094 51.9973 259.734 51.3147 260.417 50.632C261.185 49.864 261.569 48.968 261.569 47.944C261.996 47.2613 262.465 46.664 262.977 46.152C263.574 45.5547 264.129 44.9573 264.641 44.36H265.025C265.452 43.9333 265.921 43.72 266.433 43.72L266.945 43.08V41.672L267.457 41.288C267.884 40.6907 268.438 39.8373 269.121 38.728C269.804 37.6187 270.145 36.7653 270.145 36.168C270.145 35.912 269.932 35.784 269.505 35.784C269.164 35.784 268.78 35.8693 268.353 36.04C267.926 36.1253 267.628 36.168 267.457 36.168V35.528L273.985 30.024V29.896C275.094 29.128 276.161 28.3173 277.185 27.464C278.209 26.5253 279.276 25.7147 280.385 25.032C281.324 25.2027 282.348 25.5013 283.457 25.928C284.566 26.2693 285.334 26.9093 285.761 27.848V29.512C285.164 30.1093 284.14 31.176 282.689 32.712C281.238 34.248 279.574 35.9973 277.697 37.96C275.82 39.8373 273.942 41.7147 272.065 43.592C270.188 45.384 268.524 46.8773 267.073 48.072C265.708 49.2667 264.769 49.9067 264.257 49.992L262.721 51.4L263.361 52.552L262.721 53.832C262.038 54.0027 261.313 54.5573 260.545 55.496C259.862 56.3493 259.521 57.16 259.521 57.928C258.753 58.2693 258.241 58.6533 257.985 59.08C257.814 59.5067 257.558 59.9333 257.217 60.36C256.961 60.7867 256.236 61.2133 255.041 61.64L254.657 62.28V65.096L255.169 65.48L254.529 65.224L254.017 66.248H253.761C253.505 67.1013 253.377 67.9973 253.377 68.936L254.017 70.472C254.358 70.0453 255.041 69.4053 256.065 68.552C257.089 67.6133 257.558 66.9307 257.473 66.504L258.497 65.48C258.753 64.6267 259.35 63.56 260.289 62.28C261.313 60.9147 262.422 59.6773 263.617 58.568C264.812 57.4587 265.836 56.904 266.689 56.904V56.776L268.609 56.904C269.804 57.5013 270.529 58.5253 270.785 59.976C271.041 61.4267 271.425 63.1333 271.937 65.096C272.534 66.9733 273.814 68.936 275.777 70.984L277.825 69.704H278.209C278.55 69.2773 279.062 68.8933 279.745 68.552C280.513 68.2107 281.153 67.912 281.665 67.656L281.793 67.784C281.793 68.2107 281.153 68.936 279.873 69.96C278.678 70.984 277.398 71.9227 276.033 72.776C274.668 73.6293 273.686 74.1413 273.089 74.312L272.705 74.056L271.425 74.312L271.041 73.672C268.908 73.416 267.372 72.8613 266.433 72.008C265.494 71.0693 264.854 70.0453 264.513 68.936C264.257 67.8267 264.044 66.8027 263.873 65.864C263.702 64.9253 263.233 64.328 262.465 64.072C261.868 64.6693 261.313 65.2667 260.801 65.864C260.289 66.4613 259.777 67.1013 259.265 67.784C258.497 68.1253 257.729 68.936 256.961 70.216C256.278 71.496 255.596 72.904 254.913 74.44C254.316 75.976 253.633 77.2987 252.865 78.408C252.097 79.5173 251.244 80.072 250.305 80.072ZM265.665 37.32L265.537 36.936L265.921 36.04L266.689 36.168L266.945 37.064L265.665 37.32ZM305.095 85.448L302.535 82.504C302.108 80.7973 301.639 79.048 301.127 77.256C300.7 75.5493 300.402 73.8 300.231 72.008L300.871 69.576L300.615 69.448C300.956 68.5093 301.298 67.5707 301.639 66.632C302.066 65.608 302.279 64.6267 302.279 63.688C301.852 64.1147 301.383 64.5413 300.871 64.968C300.444 65.3947 300.103 65.9067 299.847 66.504C299.506 66.8453 299.207 67.272 298.951 67.784C298.695 68.296 298.354 68.7227 297.927 69.064L297.799 70.216C296.604 70.472 295.41 71.0693 294.215 72.008C293.106 72.8613 291.996 73.7147 290.887 74.568C289.778 75.336 288.583 75.72 287.303 75.72C286.706 75.72 285.938 75.6773 284.999 75.592C284.146 75.4213 283.506 75.1653 283.079 74.824C281.97 74.568 281.159 74.2693 280.647 73.928C280.22 73.5013 279.879 72.7333 279.623 71.624L280.135 69.96L279.751 68.936C280.178 67.5707 280.476 66.5893 280.647 65.992C280.903 65.3947 281.244 64.8827 281.671 64.456C282.183 64.0293 282.994 63.3893 284.103 62.536C284.188 62.1093 284.402 61.8107 284.743 61.64C285.17 61.384 285.554 61.2133 285.895 61.128L286.023 60.488L287.303 58.952L287.687 59.208L288.455 58.056C289.052 57.6293 289.65 57.3733 290.247 57.288C290.93 57.1173 291.57 56.8613 292.167 56.52C292.338 55.5813 292.892 55.0267 293.831 54.856C294.855 54.6 295.452 54.1307 295.623 53.448H296.135L298.311 52.04L299.079 52.424L300.871 51.272C301.383 51.272 301.852 51.2293 302.279 51.144C302.791 51.0587 303.26 51.016 303.687 51.016L304.199 51.272C302.492 51.8693 300.53 52.8507 298.311 54.216C296.092 55.496 293.916 57.032 291.783 58.824C289.735 60.5307 288.028 62.408 286.663 64.456C285.298 66.504 284.615 68.552 284.615 70.6C284.615 72.2213 285.468 73.032 287.175 73.032C288.711 73.032 290.29 72.5627 291.911 71.624C293.618 70.6853 295.154 69.5333 296.519 68.168C297.884 66.8027 298.866 65.48 299.463 64.2L301.639 62.408C301.81 61.9813 302.023 61.6827 302.279 61.512C302.535 61.3413 302.706 61.0427 302.791 60.616C303.388 60.5307 303.815 60.0187 304.071 59.08C304.327 58.1413 304.626 57.1173 304.967 56.008C305.308 54.8133 305.778 53.7893 306.375 52.936C306.972 52.0827 307.868 51.656 309.063 51.656C310.002 51.656 311.068 52.0827 312.263 52.936C313.458 53.704 314.055 54.6427 314.055 55.752C314.055 56.3493 313.543 57.5013 312.519 59.208C311.495 60.9147 310.3 62.92 308.935 65.224C307.655 67.528 306.503 69.9173 305.479 72.392C304.455 74.8667 303.943 77.2133 303.943 79.432C303.943 80.3707 304.114 81.3093 304.455 82.248C304.882 83.1867 305.138 84.1253 305.223 85.064L305.095 85.448ZM309.831 44.36C309.148 44.104 308.508 43.72 307.911 43.208C307.399 42.696 306.802 42.3973 306.119 42.312C306.034 42.1413 305.906 41.8853 305.735 41.544C305.65 41.1173 305.436 40.8613 305.095 40.776C305.01 40.6053 304.839 40.5627 304.583 40.648C304.412 40.7333 304.156 40.7333 303.815 40.648L301.767 39.752L301.511 38.984C301.255 39.1547 301.084 39.1973 300.999 39.112L299.975 38.6C299.634 38.344 299.463 38.1307 299.463 37.96C299.548 37.7893 299.335 37.6613 298.823 37.576L297.927 37.32L296.775 36.808L295.367 35.912L295.239 34.888L295.111 34.504H295.367L295.623 34.376C295.623 34.2053 295.666 34.12 295.751 34.12C295.922 34.0347 296.05 33.9493 296.135 33.864L297.287 32.968C297.714 32.7973 298.055 32.6267 298.311 32.456C298.652 32.2 298.994 32.2427 299.335 32.584C299.506 32.6693 299.548 32.8827 299.463 33.224C299.378 33.5653 299.42 33.736 299.591 33.736L300.359 33.608C300.615 33.608 300.743 33.6933 300.743 33.864L300.871 33.992L300.999 33.864L302.663 35.784C302.748 35.8693 302.919 35.912 303.175 35.912L303.559 36.296L303.687 36.168L304.967 37.576C305.394 38.0027 305.991 38.6 306.759 39.368C307.612 40.136 308.124 40.6053 308.295 40.776C308.807 41.2027 309.276 41.6293 309.703 42.056C310.215 42.4827 310.77 42.9093 311.367 43.336C311.452 43.336 311.495 43.4213 311.495 43.592C311.495 43.7627 311.324 43.976 310.983 44.232C310.642 44.4027 310.258 44.4453 309.831 44.36ZM338.787 85.192C337.251 85.192 335.587 84.552 333.795 83.272C332.088 81.992 331.235 80.4987 331.235 78.792C331.235 77.512 331.491 76.2747 332.003 75.08C332.515 73.8 333.07 72.6053 333.667 71.496V71.112C334.35 70.088 335.203 69.2347 336.227 68.552C336.483 68.1253 336.739 67.6133 336.995 67.016C337.336 66.3333 337.763 65.9493 338.275 65.864L338.915 66.248C337.976 67.4427 337.08 68.808 336.227 70.344L334.691 78.28C335.203 79.048 336.014 79.432 337.123 79.432C338.659 79.432 340.536 79.1333 342.755 78.536C344.974 78.024 347.192 77.4267 349.411 76.744C351.63 76.0613 353.507 75.464 355.043 74.952V74.824C355.47 74.824 355.896 74.7813 356.323 74.696C356.835 74.5253 357.176 74.184 357.347 73.672L357.219 73.288L358.243 73.416C358.755 73.16 359.267 72.904 359.779 72.648C360.291 72.392 360.846 72.2213 361.443 72.136C361.784 71.7947 362.68 71.0693 364.131 69.96C365.582 68.7653 367.203 67.528 368.995 66.248C370.787 64.8827 372.408 63.688 373.859 62.664C375.31 61.64 376.206 61.0427 376.547 60.872L377.443 59.464L378.467 58.952V57.672C378.638 56.392 378.04 55.4107 376.675 54.728C375.31 53.96 373.518 53.32 371.299 52.808C369.08 52.296 366.691 51.784 364.131 51.272C361.656 50.76 359.267 50.0773 356.963 49.224C354.744 48.2853 352.91 47.0907 351.459 45.64C350.094 44.1893 349.411 42.2693 349.411 39.88L348.771 40.264L348.515 39.88C348.515 38.088 349.539 36.168 351.587 34.12C353.72 32.072 356.408 30.0667 359.651 28.104C362.894 26.056 366.264 24.1787 369.763 22.472C373.347 20.68 376.632 19.1867 379.619 17.992C382.691 16.712 385.038 15.816 386.659 15.304C388.11 15.4747 389.432 15.816 390.627 16.328C391.907 16.7547 392.718 17.8213 393.059 19.528C393.998 19.1867 394.467 18.4613 394.467 17.352C394.467 16.7547 394.424 16.2 394.339 15.688C394.254 15.0907 394.083 14.5787 393.827 14.152L394.339 13.896C394.766 13.896 395.534 14.0667 396.643 14.408C397.838 14.664 399.118 15.0053 400.483 15.432C401.848 15.8587 403.043 16.2853 404.067 16.712C405.176 17.1387 405.816 17.5227 405.987 17.864L405.475 19.784L403.171 20.68L402.275 20.296C401.422 20.6373 401.038 21.3627 401.123 22.472C401.208 23.5813 400.952 24.2213 400.355 24.392L399.203 23.88V24.008L400.099 25.8L399.843 26.184L400.227 26.824L399.843 26.952L398.947 26.568C398.606 27.2507 398.35 28.232 398.179 29.512C398.008 30.7067 397.454 31.3467 396.515 31.432C395.576 32.2853 394.552 33.3947 393.443 34.76C392.334 36.04 391.054 36.7653 389.603 36.936V36.68L389.987 34.12L389.603 33.48C389.859 32.0293 390.2 30.4933 390.627 28.872C391.054 27.2507 391.523 25.8427 392.035 24.648C391.352 23.624 390.542 22.6853 389.603 21.832C388.75 20.9787 387.683 20.552 386.403 20.552C384.867 20.552 382.734 21.0213 380.003 21.96C377.272 22.8133 374.286 24.008 371.043 25.544C367.886 26.9947 364.899 28.6587 362.083 30.536C359.267 32.4133 357.006 34.3333 355.299 36.296C353.592 38.2587 352.867 40.136 353.123 41.928C352.782 41.672 352.568 41.3307 352.483 40.904C352.398 40.4773 352.355 40.0507 352.355 39.624C352.355 39.1973 352.355 38.7707 352.355 38.344C352.44 37.9173 352.526 37.5333 352.611 37.192C352.014 38.0453 351.715 39.0267 351.715 40.136C351.715 42.184 352.568 43.7627 354.275 44.872C355.982 45.9813 358.2 46.8347 360.931 47.432C363.662 48.0293 366.563 48.584 369.635 49.096C372.707 49.5227 375.608 50.0347 378.339 50.632C381.07 51.2293 383.288 52.1253 384.995 53.32C386.702 54.4293 387.555 56.008 387.555 58.056C387.555 59.1653 387.299 60.1893 386.787 61.128C386.275 61.9813 385.806 62.8773 385.379 63.816C384.44 64.1573 383.843 64.6267 383.587 65.224C383.331 65.8213 382.947 66.504 382.435 67.272C381.752 67.4427 380.856 68.04 379.747 69.064C378.723 70.0027 377.955 70.4293 377.443 70.344C377.102 70.5147 376.718 70.7707 376.291 71.112C375.95 71.368 375.694 71.7093 375.523 72.136L375.139 71.88C374.2 73.16 372.622 74.44 370.403 75.72C368.184 77 365.582 78.1947 362.595 79.304C359.694 80.4133 356.707 81.3947 353.635 82.248C350.648 83.1867 347.832 83.912 345.187 84.424C342.542 84.936 340.408 85.192 338.787 85.192ZM388.195 39.24L388.835 37.32L389.475 37.832L388.195 39.24ZM380.515 55.24L380.771 54.6L380.387 54.088L379.619 54.472L380.515 55.24ZM386.147 59.976V59.72L385.379 58.568L385.251 59.208V59.72L386.147 59.976ZM383.715 62.152L384.611 61.64L384.739 60.488L384.611 59.336C383.758 60.1893 383.288 61.0853 383.203 62.024L383.715 62.152ZM383.843 63.944L385.123 62.536V62.408L383.075 63.048L383.331 63.816L383.843 63.944ZM380.259 66.248L381.667 66.12L382.691 64.072L381.155 65.48L380.643 64.968L380.259 66.12V66.248ZM400.363 74.056C399.083 74.056 398.016 73.7573 397.163 73.16C396.31 72.4773 395.542 71.5813 394.859 70.472H394.603L394.731 69.448L394.475 69.576V68.808L395.115 68.296H394.859L394.091 67.656H394.347L394.603 67.144V66.888L394.347 66.248V65.992H394.091L392.299 65.096V64.712C391.702 64.1147 391.19 63.4747 390.763 62.792C390.422 62.024 390.251 61.2133 390.251 60.36C390.251 59.1653 390.763 57.7573 391.787 56.136C392.896 54.5147 394.176 53.064 395.627 51.784C397.163 50.504 398.528 49.864 399.723 49.864C400.32 49.2667 401.174 48.968 402.283 48.968L402.667 48.584L403.307 48.712C404.246 48.2853 405.27 48.1573 406.379 48.328L406.507 48.072H413.675C414.358 48.072 415.211 48.2427 416.235 48.584C417.344 48.9253 418.198 49.1813 418.795 49.352C419.563 50.2053 420.587 50.888 421.867 51.4C423.147 51.8267 423.787 52.7653 423.787 54.216C423.787 56.008 423.275 57.7147 422.251 59.336C421.227 60.9573 420.032 62.2373 418.667 63.176H418.539C418.454 63.432 418.027 63.8587 417.259 64.456C416.576 64.968 415.808 65.5227 414.955 66.12C414.187 66.632 413.675 67.016 413.419 67.272L413.035 68.424C412.438 68.424 411.883 68.6373 411.371 69.064C410.859 69.4053 410.603 69.8747 410.603 70.472C410.774 70.8133 411.158 71.112 411.755 71.368C412.352 71.5387 412.864 71.624 413.291 71.624L412.779 71.88C410.048 71.88 407.958 72.0933 406.507 72.52C405.056 72.8613 403.904 73.2027 403.051 73.544C402.198 73.8853 401.302 74.056 400.363 74.056ZM403.819 70.728C406.464 69.448 408.299 68.4667 409.323 67.784C410.432 67.016 411.2 66.376 411.627 65.864C412.054 65.2667 412.608 64.4987 413.291 63.56C413.974 62.6213 415.211 61.2987 417.003 59.592V59.336C416.662 59.336 416.363 59.2933 416.107 59.208C416.192 58.44 416.363 57.7147 416.619 57.032C416.96 56.264 417.131 55.4533 417.131 54.6C417.131 53.064 416.534 51.8267 415.339 50.888C414.23 49.864 412.95 49.352 411.499 49.352C410.731 49.352 409.92 49.4373 409.067 49.608C408.299 49.7787 407.574 49.992 406.891 50.248L405.227 50.12C403.862 50.632 402.326 51.4 400.619 52.424C398.998 53.448 397.59 54.6853 396.395 56.136C395.2 57.5013 394.603 59.0373 394.603 60.744C394.603 61.5973 394.774 62.3227 395.115 62.92L395.627 63.048V62.664L396.267 62.28L397.163 60.36V59.848L397.931 58.696L398.187 58.824L398.571 58.056L399.211 57.672V57.544C399.467 57.4587 399.723 57.3733 399.979 57.288C400.32 57.2027 400.619 57.0747 400.875 56.904C400.875 56.2213 401.174 55.8373 401.771 55.752C402.368 55.5813 402.71 55.1973 402.795 54.6H403.563L404.459 53.576L404.971 53.96L406.123 53.192H407.275V53.576C405.995 53.9173 404.587 54.856 403.051 56.392C401.515 57.8427 400.235 59.464 399.211 61.256C398.187 63.048 397.718 64.6693 397.803 66.12L397.931 68.424C398.87 68.8507 399.808 69.3627 400.747 69.96C401.686 70.472 402.71 70.728 403.819 70.728ZM400.107 71.624L400.875 71.24L397.931 69.832L397.675 69.96L398.187 71.112L400.107 71.624ZM412.139 41.672H411.755C411.328 41.672 410.987 41.544 410.731 41.288C410.475 40.9467 410.432 40.7333 410.603 40.648C411.2 40.2213 411.712 39.7947 412.139 39.368C412.651 38.9413 413.163 38.5147 413.675 38.088C413.846 37.9173 414.358 37.448 415.211 36.68C416.064 35.912 416.662 35.3147 417.003 34.888L418.283 33.48L418.411 33.608L418.795 33.224C419.051 33.224 419.222 33.1813 419.307 33.096L420.971 31.176L421.099 31.304L421.227 31.176C421.227 31.0053 421.355 30.92 421.611 30.92L422.379 31.048C422.55 31.048 422.592 30.8773 422.507 30.536C422.422 30.1947 422.464 29.9813 422.635 29.896C422.806 29.7253 423.019 29.64 423.275 29.64C423.531 29.64 423.744 29.7253 423.915 29.896C424.171 29.9813 424.427 30.1093 424.683 30.28L425.835 31.176C425.92 31.2613 426.006 31.3467 426.091 31.432C426.262 31.432 426.347 31.5173 426.347 31.688L426.603 31.816H426.859L426.731 32.2L426.603 33.224L425.195 34.12L424.043 34.632L423.147 34.888C422.635 34.9733 422.379 35.1013 422.379 35.272C422.464 35.4427 422.336 35.656 421.995 35.912L420.971 36.424C420.886 36.5093 420.715 36.4667 420.459 36.296L420.203 37.064L418.155 37.96C417.814 38.0453 417.558 38.0453 417.387 37.96C417.216 37.8747 417.046 37.9173 416.875 38.088C416.534 38.1733 416.278 38.4293 416.107 38.856C416.022 39.1973 415.936 39.4533 415.851 39.624C415.168 39.7093 414.528 40.008 413.931 40.52C413.419 41.032 412.822 41.416 412.139 41.672ZM428.624 77.896C427.771 77.896 426.789 77.384 425.68 76.36C424.656 75.336 423.803 74.568 423.12 74.056C423.035 72.9467 422.779 71.9653 422.352 71.112C421.925 70.1733 421.712 69.1493 421.712 68.04C421.712 66.504 422.267 64.712 423.376 62.664C424.571 60.5307 426.064 58.4827 427.856 56.52C429.733 54.472 431.611 52.7653 433.488 51.4C435.451 50.0347 437.2 49.352 438.736 49.352V49.096C440.187 49.4373 441.467 50.504 442.576 52.296C443.685 54.088 444.24 55.7093 444.24 57.16C444.24 57.5013 444.155 57.928 443.984 58.44C443.813 58.952 443.515 59.208 443.088 59.208C441.979 58.7813 441.04 58.184 440.272 57.416C439.504 56.648 438.437 56.264 437.072 56.264C435.792 56.264 434.469 56.8187 433.104 57.928C431.739 59.0373 430.501 60.4453 429.392 62.152C428.283 63.7733 427.387 65.48 426.704 67.272C426.021 68.9787 425.68 70.4293 425.68 71.624C425.68 71.7093 425.723 71.9227 425.808 72.264C425.979 72.6053 426.107 72.8613 426.192 73.032C426.789 73.4587 427.515 73.672 428.368 73.672C429.307 73.5867 430.117 73.5867 430.8 73.672L430.928 73.8L431.184 73.16C432.379 72.9893 433.488 72.7333 434.512 72.392V71.624H435.28L435.152 71.24L435.792 71.368C436.219 71.1973 436.517 71.0267 436.688 70.856C436.944 70.6 437.243 70.3867 437.584 70.216L438.224 70.6V70.472L440.528 68.296H440.656L441.168 68.552V68.424C442.277 67.4 443.429 66.4613 444.624 65.608C445.904 64.7547 446.843 63.6453 447.44 62.28L449.104 61.256L449.232 61.512C449.232 62.1093 449.019 62.664 448.592 63.176C448.165 63.688 447.696 64.0293 447.184 64.2C446.331 65.8213 445.264 67.1867 443.984 68.296C442.704 69.4053 441.381 70.5573 440.016 71.752H439.504L439.376 72.392C437.84 73.5013 436.176 74.696 434.384 75.976C432.592 77.256 430.672 77.896 428.624 77.896ZM450.64 61.128L449.616 60.872V60.104L450.768 59.72L450.896 60.104L450.64 61.128Z" fill="black"/>
<path d="M41.808 114.456C39.9307 114.456 38.5227 114.029 37.584 113.176C36.7307 112.323 36.304 110.915 36.304 108.952C36.304 106.307 37.072 102.936 38.608 98.84C40.2293 94.6587 42.32 90.136 44.88 85.272C47.44 80.408 50.1707 75.5867 53.072 70.808C55.9733 66.0293 58.7467 61.6773 61.392 57.752C64.0373 53.7413 66.2133 50.584 67.92 48.28C67.664 48.1947 67.28 48.0667 66.768 47.896C66.256 47.7253 66 47.4267 66 47C66 46.5733 66.5973 45.72 67.792 44.44C69.072 43.0747 70.5653 41.624 72.272 40.088C73.9787 38.4667 75.5573 37.1013 77.008 35.992C78.544 34.7973 79.568 34.2 80.08 34.2C81.4453 34.2 82.6827 34.7547 83.792 35.864C84.9867 36.9733 85.584 38.2533 85.584 39.704C85.584 40.0453 85.4987 40.3867 85.328 40.728C85.072 42.008 84.5173 44.312 83.664 47.64C82.896 50.968 82.0427 54.8933 81.104 59.416C80.2507 63.8533 79.4827 68.504 78.8 73.368C78.2027 78.232 77.904 82.7973 77.904 87.064C77.904 92.0133 78.5013 96.1947 79.696 99.608C80.976 103.021 83.2373 104.728 86.48 104.728C89.3813 104.728 92.2827 103.363 95.184 100.632C98.1707 97.9013 101.029 94.36 103.76 90.008C106.576 85.5707 109.093 80.8773 111.312 75.928C112.08 74.2213 113.019 71.9173 114.128 69.016C115.237 66.0293 116.304 62.8293 117.328 59.416C118.437 55.9173 119.333 52.5467 120.016 49.304C120.784 45.976 121.168 43.16 121.168 40.856C121.168 37.528 120.272 35.864 118.48 35.864C117.797 35.864 117.072 36.0347 116.304 36.376C115.621 36.632 114.853 36.76 114 36.76C113.744 36.76 113.403 36.7173 112.976 36.632C112.635 36.4613 112.464 36.2053 112.464 35.864C112.464 35.0107 112.976 34.2427 114 33.56C115.024 32.8773 116.176 32.3227 117.456 31.896C118.821 31.4693 119.845 31.256 120.528 31.256C123.088 31.256 124.923 32.152 126.032 33.944C127.227 35.6507 127.824 37.9973 127.824 40.984C127.824 44.4827 127.141 48.6213 125.776 53.4C124.411 58.1787 122.533 63.1707 120.144 68.376C117.755 73.5813 115.024 78.7013 111.952 83.736C108.88 88.6853 105.637 93.208 102.224 97.304C98.896 101.315 95.5253 104.515 92.112 106.904C88.784 109.293 85.6267 110.488 82.64 110.488C79.7387 110.488 77.4347 109.635 75.728 107.928C74.1067 106.136 72.9547 103.789 72.272 100.888C71.5893 97.9013 71.248 94.5733 71.248 90.904C71.248 86.7227 71.5893 82.3707 72.272 77.848C72.9547 73.24 73.7653 68.8453 74.704 64.664C75.6427 60.3973 76.5813 56.6853 77.52 53.528C78.4587 50.2853 79.184 47.9387 79.696 46.488C77.5627 48.8773 74.832 52.12 71.504 56.216C68.176 60.2267 64.6773 64.664 61.008 69.528C57.424 74.392 54.0107 79.3413 50.768 84.376C47.5253 89.4107 44.88 94.1893 42.832 98.712C40.8693 103.149 39.888 106.989 39.888 110.232C39.888 110.659 39.9307 111.128 40.016 111.64C40.1867 112.152 40.5707 112.408 41.168 112.408C42.704 112.408 43.472 112.749 43.472 113.432C43.472 114.115 42.9173 114.456 41.808 114.456Z" fill="white"/>
<path d="M198.56 119.2C199.792 119.664 201.12 119.896 202.544 119.896C203.968 119.896 204.976 119.688 205.568 119.272C206.16 118.84 206.456 118.048 206.456 116.896C206.456 116.288 206.264 115.784 205.88 115.384C205.512 115.032 205.176 114.776 204.872 114.616L204.008 114.184C203.736 114.056 203.4 113.904 203 113.728C202.616 113.552 202.28 113.4 201.992 113.272C201.704 113.128 201.312 112.928 200.816 112.672C200.32 112.4 199.968 112.176 199.76 112C199.552 111.808 199.32 111.576 199.064 111.304C198.616 110.808 198.392 110.168 198.392 109.384C198.392 108.056 198.848 107.024 199.76 106.288C200.672 105.536 201.848 105.16 203.288 105.16C204.728 105.16 206.064 105.36 207.296 105.76L206.984 106.96C205.992 106.64 204.848 106.48 203.552 106.48C202.272 106.48 201.368 106.688 200.84 107.104C200.312 107.504 200.048 108.2 200.048 109.192C200.048 109.928 200.424 110.536 201.176 111.016C201.784 111.4 202.72 111.872 203.984 112.432C205.248 112.976 206.104 113.4 206.552 113.704C207.688 114.472 208.264 115.512 208.28 116.824C208.28 119.752 206.384 121.216 202.592 121.216C201.008 121.216 199.528 120.984 198.152 120.52L198.56 119.2ZM211.253 110.44C211.253 110.36 211.213 110.32 211.133 110.32H210.173V109.624L211.277 109.168L211.541 107.056H212.765V108.976C212.813 109.088 213.141 109.144 213.749 109.144H215.165L214.973 110.272L212.957 110.296C212.813 110.296 212.741 110.328 212.741 110.392V117.976L213.365 121.096H212.309L212.213 121.024L211.253 117.976V110.44ZM225.542 113.824L225.518 116.68C225.518 117.128 225.526 117.544 225.542 117.928L226.07 120.856L226.094 120.976H225.038L224.942 120.904L224.366 119.512C222.878 120.536 221.414 121.072 219.974 121.12C218.966 121.12 218.19 120.856 217.646 120.328C217.118 119.784 216.854 119.024 216.854 118.048C216.854 116.704 217.23 115.792 217.982 115.312C218.734 114.832 219.766 114.592 221.078 114.592C221.238 114.592 222.206 114.64 223.982 114.736V113.176C223.982 112.12 223.782 111.392 223.382 110.992C222.998 110.576 222.454 110.368 221.75 110.368C221.046 110.368 219.686 110.584 217.67 111.016L217.454 109.864C219.438 109.272 220.862 108.976 221.726 108.976C223.038 108.976 224.078 109.384 224.846 110.2C225.31 110.696 225.542 111.904 225.542 113.824ZM223.982 115.936L221.462 115.84C220.182 115.84 219.35 115.968 218.966 116.224C218.582 116.48 218.39 116.992 218.39 117.76C218.39 118.512 218.518 119.032 218.774 119.32C219.03 119.592 219.47 119.728 220.094 119.728C220.734 119.728 221.478 119.6 222.326 119.344C223.19 119.088 223.742 118.792 223.982 118.456V115.936ZM227.644 124.456C228.22 124.616 228.708 124.696 229.108 124.696C230.372 124.664 231.22 124.08 231.652 122.944L232.372 121.024L227.788 109.192H229.516L233.164 119.32L236.74 109.192H238.42L233.14 123.424C232.484 125.04 231.284 125.848 229.54 125.848C228.804 125.848 227.988 125.704 227.091 125.416L227.644 124.456ZM245.693 119.2C246.925 119.664 248.253 119.896 249.677 119.896C251.101 119.896 252.109 119.688 252.701 119.272C253.293 118.84 253.589 118.048 253.589 116.896C253.589 116.288 253.397 115.784 253.013 115.384C252.645 115.032 252.309 114.776 252.005 114.616L251.141 114.184C250.869 114.056 250.533 113.904 250.133 113.728C249.749 113.552 249.413 113.4 249.125 113.272C248.837 113.128 248.445 112.928 247.949 112.672C247.453 112.4 247.101 112.176 246.893 112C246.685 111.808 246.453 111.576 246.197 111.304C245.749 110.808 245.525 110.168 245.525 109.384C245.525 108.056 245.981 107.024 246.893 106.288C247.805 105.536 248.981 105.16 250.421 105.16C251.861 105.16 253.197 105.36 254.429 105.76L254.117 106.96C253.125 106.64 251.981 106.48 250.685 106.48C249.405 106.48 248.501 106.688 247.973 107.104C247.445 107.504 247.181 108.2 247.181 109.192C247.181 109.928 247.557 110.536 248.309 111.016C248.917 111.4 249.853 111.872 251.117 112.432C252.381 112.976 253.237 113.4 253.685 113.704C254.821 114.472 255.397 115.512 255.413 116.824C255.413 119.752 253.517 121.216 249.725 121.216C248.141 121.216 246.661 120.984 245.285 120.52L245.693 119.2ZM266.253 113.824L266.229 116.68C266.229 117.128 266.237 117.544 266.253 117.928L266.781 120.856L266.805 120.976H265.749L265.653 120.904L265.077 119.512C263.589 120.536 262.125 121.072 260.685 121.12C259.677 121.12 258.901 120.856 258.357 120.328C257.829 119.784 257.565 119.024 257.565 118.048C257.565 116.704 257.941 115.792 258.693 115.312C259.445 114.832 260.477 114.592 261.789 114.592C261.949 114.592 262.917 114.64 264.693 114.736V113.176C264.693 112.12 264.493 111.392 264.093 110.992C263.709 110.576 263.165 110.368 262.461 110.368C261.757 110.368 260.397 110.584 258.381 111.016L258.165 109.864C260.149 109.272 261.573 108.976 262.437 108.976C263.749 108.976 264.789 109.384 265.557 110.2C266.021 110.696 266.253 111.904 266.253 113.824ZM264.693 115.936L262.173 115.84C260.893 115.84 260.061 115.968 259.677 116.224C259.293 116.48 259.101 116.992 259.101 117.76C259.101 118.512 259.229 119.032 259.485 119.32C259.741 119.592 260.181 119.728 260.805 119.728C261.445 119.728 262.189 119.6 263.037 119.344C263.901 119.088 264.453 118.792 264.693 118.456V115.936ZM271.805 109C271.805 109.128 272.141 109.192 272.813 109.192C273.501 109.192 273.989 109.192 274.277 109.192C274.565 109.176 274.749 109.168 274.829 109.168L274.613 110.344H271.997C271.869 110.344 271.805 110.376 271.805 110.44V122.776L270.965 125.752L270.893 125.824H269.789L270.317 122.776V110.488C270.317 110.408 270.213 110.368 270.005 110.368H269.189L269.213 109.672C269.869 109.368 270.237 109.2 270.317 109.168V109.144L270.293 107.272C270.293 106.44 270.461 105.744 270.797 105.184C271.133 104.608 271.541 104.2 272.021 103.96C272.933 103.544 273.789 103.336 274.589 103.336C274.637 103.336 274.685 103.336 274.733 103.336L275.237 103.36L274.973 104.536C274.957 104.568 274.877 104.576 274.733 104.56C274.605 104.528 274.477 104.512 274.349 104.512C274.237 104.512 274.045 104.56 273.773 104.656C273.501 104.736 273.213 104.848 272.909 104.992C272.605 105.136 272.341 105.408 272.117 105.808C271.909 106.208 271.805 106.696 271.805 107.272V109ZM285.349 113.296C285.349 113.872 285.301 114.472 285.205 115.096H277.669C277.733 116.856 278.029 118.072 278.557 118.744C279.085 119.4 280.021 119.728 281.365 119.728C282.373 119.728 283.549 119.512 284.893 119.08L285.037 120.28C284.669 120.424 284.381 120.528 284.173 120.592C283.981 120.64 283.773 120.704 283.549 120.784C283.325 120.848 283.157 120.896 283.045 120.928C282.933 120.96 282.773 121 282.565 121.048C282.357 121.096 282.181 121.128 282.037 121.144C281.605 121.192 281.237 121.216 280.933 121.216C279.429 121.216 278.245 120.688 277.381 119.632C276.517 118.576 276.085 117.104 276.085 115.216C276.085 114.176 276.213 113.264 276.469 112.48C276.725 111.68 277.029 111.072 277.381 110.656C277.733 110.224 278.157 109.88 278.653 109.624C279.389 109.224 280.189 109.008 281.053 108.976C283.917 108.992 285.349 110.432 285.349 113.296ZM283.837 112.912C283.837 111.952 283.597 111.28 283.117 110.896C282.637 110.512 281.925 110.32 280.981 110.32C280.037 110.32 279.261 110.576 278.653 111.088C278.045 111.584 277.733 112.512 277.717 113.872H283.765C283.813 113.504 283.837 113.184 283.837 112.912ZM290.082 118.792L290.106 120.976L288.834 124.024H287.658L288.258 120.976L288.282 118.792H290.082ZM298.779 119.2C300.011 119.664 301.339 119.896 302.763 119.896C304.187 119.896 305.195 119.688 305.787 119.272C306.379 118.84 306.675 118.048 306.675 116.896C306.675 116.288 306.483 115.784 306.099 115.384C305.731 115.032 305.395 114.776 305.091 114.616L304.227 114.184C303.955 114.056 303.619 113.904 303.219 113.728C302.835 113.552 302.499 113.4 302.211 113.272C301.923 113.128 301.531 112.928 301.035 112.672C300.539 112.4 300.187 112.176 299.979 112C299.771 111.808 299.539 111.576 299.283 111.304C298.835 110.808 298.611 110.168 298.611 109.384C298.611 108.056 299.067 107.024 299.979 106.288C300.891 105.536 302.067 105.16 303.507 105.16C304.947 105.16 306.283 105.36 307.515 105.76L307.203 106.96C306.211 106.64 305.067 106.48 303.771 106.48C302.491 106.48 301.587 106.688 301.059 107.104C300.531 107.504 300.267 108.2 300.267 109.192C300.267 109.928 300.643 110.536 301.395 111.016C302.003 111.4 302.939 111.872 304.203 112.432C305.467 112.976 306.323 113.4 306.771 113.704C307.907 114.472 308.483 115.512 308.499 116.824C308.499 119.752 306.603 121.216 302.811 121.216C301.227 121.216 299.747 120.984 298.371 120.52L298.779 119.2ZM311.471 110.44C311.471 110.36 311.431 110.32 311.351 110.32H310.391V109.624L311.495 109.168L311.759 107.056H312.983V108.976C313.031 109.088 313.359 109.144 313.967 109.144H315.383L315.191 110.272L313.175 110.296C313.031 110.296 312.959 110.328 312.959 110.392V117.976L313.583 121.096H312.527L312.431 121.024L311.471 117.976V110.44ZM325.761 113.824L325.737 116.68C325.737 117.128 325.745 117.544 325.761 117.928L326.289 120.856L326.313 120.976H325.257L325.161 120.904L324.585 119.512C323.097 120.536 321.633 121.072 320.193 121.12C319.185 121.12 318.409 120.856 317.865 120.328C317.337 119.784 317.073 119.024 317.073 118.048C317.073 116.704 317.449 115.792 318.201 115.312C318.953 114.832 319.985 114.592 321.297 114.592C321.457 114.592 322.425 114.64 324.201 114.736V113.176C324.201 112.12 324.001 111.392 323.601 110.992C323.217 110.576 322.673 110.368 321.969 110.368C321.265 110.368 319.905 110.584 317.889 111.016L317.673 109.864C319.657 109.272 321.081 108.976 321.945 108.976C323.257 108.976 324.297 109.384 325.065 110.2C325.529 110.696 325.761 111.904 325.761 113.824ZM324.201 115.936L321.681 115.84C320.401 115.84 319.569 115.968 319.185 116.224C318.801 116.48 318.609 116.992 318.609 117.76C318.609 118.512 318.737 119.032 318.993 119.32C319.249 119.592 319.689 119.728 320.313 119.728C320.953 119.728 321.697 119.6 322.545 119.344C323.409 119.088 323.961 118.792 324.201 118.456V115.936ZM327.862 124.456C328.438 124.616 328.926 124.696 329.326 124.696C330.59 124.664 331.438 124.08 331.87 122.944L332.59 121.024L328.006 109.192H329.734L333.382 119.32L336.958 109.192H338.638L333.358 123.424C332.702 125.04 331.502 125.848 329.758 125.848C329.022 125.848 328.206 125.704 327.31 125.416L327.862 124.456ZM355.56 105.448H357.144V121H355.56V113.608H348.12V121H346.536V105.448H348.12V112.264H355.56V105.448ZM369.724 113.296C369.724 113.872 369.676 114.472 369.58 115.096H362.044C362.108 116.856 362.404 118.072 362.932 118.744C363.46 119.4 364.396 119.728 365.74 119.728C366.748 119.728 367.924 119.512 369.268 119.08L369.412 120.28C369.044 120.424 368.756 120.528 368.548 120.592C368.356 120.64 368.148 120.704 367.924 120.784C367.7 120.848 367.532 120.896 367.42 120.928C367.308 120.96 367.148 121 366.94 121.048C366.732 121.096 366.556 121.128 366.412 121.144C365.98 121.192 365.612 121.216 365.308 121.216C363.804 121.216 362.62 120.688 361.756 119.632C360.892 118.576 360.46 117.104 360.46 115.216C360.46 114.176 360.588 113.264 360.844 112.48C361.1 111.68 361.404 111.072 361.756 110.656C362.108 110.224 362.532 109.88 363.028 109.624C363.764 109.224 364.564 109.008 365.428 108.976C368.292 108.992 369.724 110.432 369.724 113.296ZM368.212 112.912C368.212 111.952 367.972 111.28 367.492 110.896C367.012 110.512 366.3 110.32 365.356 110.32C364.412 110.32 363.636 110.576 363.028 111.088C362.42 111.584 362.108 112.512 362.092 113.872H368.14C368.188 113.504 368.212 113.184 368.212 112.912ZM380.769 113.824L380.745 116.68C380.745 117.128 380.753 117.544 380.769 117.928L381.297 120.856L381.321 120.976H380.265L380.169 120.904L379.593 119.512C378.105 120.536 376.641 121.072 375.201 121.12C374.193 121.12 373.417 120.856 372.873 120.328C372.345 119.784 372.081 119.024 372.081 118.048C372.081 116.704 372.457 115.792 373.209 115.312C373.961 114.832 374.993 114.592 376.305 114.592C376.465 114.592 377.433 114.64 379.209 114.736V113.176C379.209 112.12 379.009 111.392 378.609 110.992C378.225 110.576 377.681 110.368 376.977 110.368C376.273 110.368 374.913 110.584 372.897 111.016L372.681 109.864C374.665 109.272 376.089 108.976 376.953 108.976C378.265 108.976 379.305 109.384 380.073 110.2C380.537 110.696 380.769 111.904 380.769 113.824ZM379.209 115.936L376.689 115.84C375.409 115.84 374.577 115.968 374.193 116.224C373.809 116.48 373.617 116.992 373.617 117.76C373.617 118.512 373.745 119.032 374.001 119.32C374.257 119.592 374.697 119.728 375.321 119.728C375.961 119.728 376.705 119.6 377.553 119.344C378.417 119.088 378.969 118.792 379.209 118.456V115.936ZM384.424 103.336H385.912V118.144L386.512 121.216H385.408L385.312 121.12L384.424 118.144V103.336ZM389.987 110.44C389.987 110.36 389.947 110.32 389.867 110.32H388.907V109.624L390.011 109.168L390.275 107.056H391.499V108.976C391.547 109.088 391.875 109.144 392.483 109.144H393.899L393.707 110.272L391.691 110.296C391.547 110.296 391.475 110.328 391.475 110.392V117.976L392.099 121.096H391.043L390.947 121.024L389.987 117.976V110.44ZM397.892 121H396.356V103.336H397.892V110.32C398.612 109.84 399.244 109.488 399.788 109.264C400.348 109.04 400.98 108.928 401.684 108.928C404.004 108.928 405.164 110.136 405.164 112.552V121H403.604V112.552C403.588 111.096 402.756 110.368 401.108 110.368C400.404 110.368 399.716 110.528 399.044 110.848C398.372 111.152 397.988 111.44 397.892 111.712V121ZM407.269 124.456C407.845 124.616 408.333 124.696 408.733 124.696C409.997 124.664 410.845 124.08 411.277 122.944L411.997 121.024L407.413 109.192H409.141L412.789 119.32L416.365 109.192H418.045L412.765 123.424C412.109 125.04 410.909 125.848 409.165 125.848C408.429 125.848 407.613 125.704 406.716 125.416L407.269 124.456Z" fill="black"/>
</g>
<defs>
<filter id="filter0_i_0_1" x="12" y="5" width="140" height="144" filterUnits="userSpaceOnUse" color-interpolation-filters="sRGB">
<feFlood flood-opacity="0" result="BackgroundImageFix"/>
<feBlend mode="normal" in="SourceGraphic" in2="BackgroundImageFix" result="shape"/>
<feColorMatrix in="SourceAlpha" type="matrix" values="0 0 0 0 0 0 0 0 0 0 0 0 0 0 0 0 0 0 127 0" result="hardAlpha"/>
<feOffset dy="4"/>
<feGaussianBlur stdDeviation="2"/>
<feComposite in2="hardAlpha" operator="arithmetic" k2="-1" k3="1"/>
<feColorMatrix type="matrix" values="0 0 0 0 0 0 0 0 0 0 0 0 0 0 0 0 0 0 0.25 0"/>
<feBlend mode="normal" in2="shape" result="effect1_innerShadow_0_1"/>
</filter>
<filter id="filter1_i_0_1" x="20" y="13" width="125" height="128" filterUnits="userSpaceOnUse" color-interpolation-filters="sRGB">
<feFlood flood-opacity="0" result="BackgroundImageFix"/>
<feBlend mode="normal" in="SourceGraphic" in2="BackgroundImageFix" result="shape"/>
<feColorMatrix in="SourceAlpha" type="matrix" values="0 0 0 0 0 0 0 0 0 0 0 0 0 0 0 0 0 0 127 0" result="hardAlpha"/>
<feOffset dy="4"/>
<feGaussianBlur stdDeviation="2"/>
<feComposite in2="hardAlpha" operator="arithmetic" k2="-1" k3="1"/>
<feColorMatrix type="matrix" values="0 0 0 0 0 0 0 0 0 0 0 0 0 0 0 0 0 0 0.25 0"/>
<feBlend mode="normal" in2="shape" result="effect1_innerShadow_0_1"/>
</filter>
<clipPath id="clip0_0_1">
<rect width="500" height="150" fill="white"/>
</clipPath>
</defs>
</svg>
